<svg width="46" height="46" viewBox="0 0 46 46" fill="none" xmlns="http://www.w3.org/2000/svg">
<g filter="url(#filter0_d_417_1689)">
<path d="M1 12C1 5.37258 6.37258 0 13 0H33C39.6274 0 45 5.37258 45 12V32C45 38.6274 39.6274 44 33 44H13C6.37258 44 1 38.6274 1 32V12Z" fill="#11C4D4" shape-rendering="crispEdges"/>
<path fill-rule="evenodd" clip-rule="evenodd" d="M18.8333 14.5C19.2936 14.5 19.6667 14.8731 19.6667 15.3333V16.1667H22.1667V15.3333C22.1667 14.8731 22.5398 14.5 23 14.5C23.4602 14.5 23.8333 14.8731 23.8333 15.3333V16.1667H26.3333V15.3333C26.3333 14.8731 26.7064 14.5 27.1667 14.5C27.6269 14.5 28 14.8731 28 15.3333V16.1667H28.8333C29.7538 16.1667 30.5 16.9129 30.5 17.8333V27.8333C30.5 28.7538 29.7538 29.5 28.8333 29.5H17.1667C16.2462 29.5 15.5 28.7538 15.5 27.8333V17.8333C15.5 16.9129 16.2462 16.1667 17.1667 16.1667H18L18 15.3333C18 14.8731 18.3731 14.5 18.8333 14.5ZM18 17.8333L17.1667 17.8333V19.5H28.8333V17.8333H28C28 18.2936 27.6269 18.6667 27.1667 18.6667C26.7064 18.6667 26.3333 18.2936 26.3333 17.8333H23.8333C23.8333 18.2936 23.4602 18.6667 23 18.6667C22.5398 18.6667 22.1667 18.2936 22.1667 17.8333H19.6667C19.6667 18.2936 19.2936 18.6667 18.8333 18.6667C18.3731 18.6667 18 18.2936 18 17.8333ZM28.8333 21.1667H17.1667V27.8333H28.8333V21.1667ZM18.8333 23.6667C18.8333 23.2064 19.2064 22.8333 19.6667 22.8333H26.3333C26.7936 22.8333 27.1667 23.2064 27.1667 23.6667C27.1667 24.1269 26.7936 24.5 26.3333 24.5H19.6667C19.2064 24.5 18.8333 24.1269 18.8333 23.6667Z" fill="white"/>
</g>
<defs>
<filter id="filter0_d_417_1689" x="0.45" y="0" width="45.1" height="45.55" filterUnits="userSpaceOnUse" color-interpolation-filters="sRGB">
<feFlood flood-opacity="0" result="BackgroundImageFix"/>
<feColorMatrix in="SourceAlpha" type="matrix" values="0 0 0 0 0 0 0 0 0 0 0 0 0 0 0 0 0 0 127 0" result="hardAlpha"/>
<feMorphology radius="0.05" operator="dilate" in="SourceAlpha" result="effect1_dropShadow_417_1689"/>
<feOffset dy="1"/>
<feGaussianBlur stdDeviation="0.25"/>
<feComposite in2="hardAlpha" operator="out"/>
<feColorMatrix type="matrix" values="0 0 0 0 0.113725 0 0 0 0 0.160784 0 0 0 0 0.239216 0 0 0 0.02 0"/>
<feBlend mode="normal" in2="BackgroundImageFix" result="effect1_dropShadow_417_1689"/>
<feBlend mode="normal" in="SourceGraphic" in2="effect1_dropShadow_417_1689" result="shape"/>
</filter>
</defs>
</svg>
