<svg width="676" height="160" viewBox="0 0 676 160" fill="none" xmlns="http://www.w3.org/2000/svg">
<path d="M247.005 42.376C250.722 43.192 254.848 43.6 259.381 43.6C263.914 43.6 268.312 43.192 272.573 42.376L273.525 46.864C269.989 47.3173 267.405 47.8613 265.773 48.496C264.232 49.1307 263.461 50.7173 263.461 53.256L267.541 122.208C267.722 124.565 268.538 126.107 269.989 126.832C271.168 127.376 273.661 127.965 277.469 128.6L276.517 133.088C270.442 132.363 265.048 132 260.333 132C255.618 132 250.269 132.363 244.285 133.088L243.333 128.328C248.048 127.784 251.266 127.104 252.989 126.288C254.621 125.653 255.392 124.293 255.301 122.208L251.357 54.208L250.541 53.528C249.544 58.0613 248.592 61.416 247.685 63.592L228.101 112.688C226.288 117.403 224.429 122.843 222.525 129.008L221.573 132L213.413 134.312C210.874 125.789 208.653 119.171 206.749 114.456L186.485 63.728L183.901 54.752L182.949 55.432L178.189 122.208C178.098 123.387 178.189 124.248 178.461 124.792C178.824 125.336 179.413 125.835 180.229 126.288C181.589 126.832 184.309 127.421 188.389 128.056L190.157 128.328L189.205 133.088C183.13 132.363 178.416 132 175.061 132C171.706 132 166.992 132.363 160.917 133.088L159.965 128.6C163.138 128.147 165.586 127.557 167.309 126.832C168.76 126.107 169.53 124.701 169.621 122.616L174.653 52.848C174.834 50.672 174.109 49.2667 172.477 48.632C171.298 47.9973 169.168 47.4987 166.085 47.136L164.589 46.864L165.541 42.376C169.802 43.192 174.426 43.6 179.413 43.6C184.4 43.6 188.752 43.192 192.469 42.376C193.194 45.64 194.101 48.7227 195.189 51.624L217.765 110.512L219.533 116.904L220.485 117.176C220.757 114.184 221.165 112.008 221.709 110.648L243.877 52.44L247.005 42.376ZM319.327 125.608C324.767 125.608 330.207 123.659 335.647 119.76L337.823 122.752C329.572 130.368 321.594 134.176 313.887 134.176C306.271 134.176 299.97 131.547 294.983 126.288C290.087 120.939 287.639 113.867 287.639 105.072C287.639 96.2773 290.132 88.7973 295.119 82.632C300.106 76.376 306.543 73.248 314.431 73.248C322.41 73.248 328.348 75.7413 332.247 80.728C336.146 85.624 338.095 92.288 338.095 100.72L299.743 103.44C300.468 118.219 306.996 125.608 319.327 125.608ZM313.751 78.824C308.946 78.824 305.41 80.7733 303.143 84.672C300.876 88.48 299.743 93.104 299.743 98.544L325.855 95.28C325.855 84.3093 321.82 78.824 313.751 78.824ZM401.906 120.44C401.906 122.797 402.586 124.293 403.946 124.928C405.306 125.472 406.756 125.744 408.298 125.744C409.839 125.744 411.29 125.653 412.65 125.472L413.602 129.552C407.708 130.731 402.404 132.272 397.69 134.176C394.335 131.637 392.25 128.555 391.434 124.928C383.908 131.093 377.924 134.176 373.482 134.176C365.503 134.176 359.383 131.637 355.122 126.56C350.951 121.483 348.866 114.365 348.866 105.208C348.866 96.0507 351.495 88.4347 356.754 82.36C362.103 76.2853 369.266 73.248 378.242 73.248C382.775 73.248 387.036 74.2 391.026 76.104V47.408C391.026 44.5973 390.21 43.056 388.578 42.784C387.036 42.6027 384.679 42.784 381.506 43.328L380.01 43.6L379.33 39.52C381.868 38.3413 385.359 37.2533 389.802 36.256C394.244 35.168 397.916 34.5333 400.818 34.352L402.858 36.8C402.223 39.52 401.906 43.9627 401.906 50.128V120.44ZM360.97 102.76C360.97 110.648 362.466 116.541 365.458 120.44C368.45 124.248 372.303 126.152 377.018 126.152C381.732 126.152 386.402 124.339 391.026 120.712V86.848C389.484 84.4 387.399 82.4507 384.77 81C382.14 79.5493 379.556 78.824 377.018 78.824C372.212 78.824 368.314 80.8187 365.322 84.808C362.42 88.7973 360.97 94.7813 360.97 102.76ZM440.437 123.024C440.437 124.203 440.528 125.019 440.709 125.472C440.981 125.925 441.571 126.379 442.477 126.832C444.2 127.739 446.376 128.373 449.005 128.736L450.365 129.008L449.413 133.088C443.339 132.363 438.533 132 434.997 132C431.461 132 426.701 132.363 420.717 133.088L419.629 129.008C423.165 128.464 425.568 127.875 426.837 127.24C428.197 126.515 428.968 125.925 429.149 125.472C429.421 125.019 429.557 124.203 429.557 123.024V85.624C429.557 82.9947 428.787 81.544 427.245 81.272C425.885 81.0907 423.755 81.272 420.853 81.816L420.037 77.736C422.757 76.648 426.157 75.6507 430.237 74.744C434.317 73.7467 437.536 73.248 439.893 73.248L441.933 75.696C440.936 79.504 440.437 83.9467 440.437 89.024V123.024ZM426.973 55.976C425.523 54.5253 424.797 52.712 424.797 50.536C424.797 48.36 425.523 46.5467 426.973 45.096C428.424 43.6453 430.328 42.92 432.685 42.92C435.043 42.92 436.947 43.6453 438.397 45.096C439.939 46.5467 440.709 48.36 440.709 50.536C440.709 52.712 439.939 54.5253 438.397 55.976C436.947 57.336 435.043 58.016 432.685 58.016C430.419 58.016 428.515 57.336 426.973 55.976ZM518.118 93.784V123.024C518.118 124.203 518.208 125.019 518.39 125.472C518.662 125.925 519.206 126.379 520.022 126.832C521.291 127.467 523.512 128.101 526.686 128.736L528.046 129.008L527.094 133.088C519.659 132.363 514.944 132 512.95 132C511.046 132 506.376 132.363 498.942 133.088L497.99 129.144C501.072 128.6 503.248 128.011 504.518 127.376C505.878 126.651 506.648 126.061 506.83 125.608C507.102 125.155 507.238 124.384 507.238 123.296V96.504C507.238 91.2453 506.286 87.4373 504.382 85.08C502.568 82.7227 499.35 81.544 494.726 81.544C490.102 81.544 484.888 83.8107 479.086 88.344V123.296C479.086 124.475 479.176 125.291 479.358 125.744C479.63 126.107 480.219 126.515 481.126 126.968C482.848 127.875 485.296 128.6 488.47 129.144L487.518 133.088C480.083 132.363 475.368 132 473.374 132C471.47 132 466.8 132.363 459.366 133.088L458.278 129.008C461.814 128.464 464.216 127.875 465.486 127.24C466.846 126.515 467.616 125.925 467.798 125.472C468.07 125.019 468.206 124.203 468.206 123.024V47.408C468.206 44.688 467.435 43.192 465.894 42.92C464.262 42.7387 462.222 42.8747 459.774 43.328L458.278 43.6L457.598 39.52C460.136 38.3413 463.491 37.2533 467.662 36.256C471.923 35.168 475.414 34.5333 478.134 34.352L480.038 36.8C479.403 39.52 479.086 43.9627 479.086 50.128V83.312L484.118 79.368C489.286 75.288 494.726 73.248 500.438 73.248C506.15 73.248 510.502 74.8347 513.494 78.008C516.576 81.1813 518.118 86.44 518.118 93.784ZM592.426 120.44C592.426 122.797 593.106 124.293 594.466 124.928C595.826 125.472 597.276 125.744 598.818 125.744C600.359 125.744 601.81 125.653 603.17 125.472L604.122 129.552C597.866 130.821 592.562 132.363 588.21 134.176C583.948 131.093 581.818 127.784 581.818 124.248L576.922 127.92C571.572 132.091 566.178 134.176 560.738 134.176C549.223 134.176 543.466 127.331 543.466 113.64V86.032C543.466 83.1307 542.695 81.544 541.154 81.272C539.794 81.0907 537.98 81.2267 535.714 81.68L534.354 81.952L533.674 77.872C539.023 75.6053 545.596 74.064 553.394 73.248L555.298 75.696C554.663 78.416 554.346 82.8587 554.346 89.024V110.92C554.346 116.088 555.298 119.896 557.202 122.344C559.196 124.701 562.324 125.88 566.586 125.88C570.847 125.88 575.788 123.749 581.41 119.488V86.032C581.41 83.1307 580.684 81.544 579.234 81.272C577.602 81.0907 575.516 81.2267 572.978 81.68L571.482 81.952L570.666 77.872C576.65 75.2427 583.54 73.7013 591.338 73.248L593.378 75.696C592.743 78.416 592.426 82.8587 592.426 89.024V120.44ZM627.759 81C635.466 75.832 642.039 73.248 647.479 73.248C655.005 73.248 660.671 75.7867 664.479 80.864C668.287 85.9413 670.191 93.0133 670.191 102.08C670.191 111.147 667.426 118.763 661.895 124.928C656.455 131.093 649.837 134.176 642.039 134.176C634.333 134.176 625.946 132.317 616.879 128.6V47.408C616.879 45.776 616.653 44.5973 616.199 43.872C615.746 43.1467 614.839 42.784 613.479 42.784L607.767 43.6L606.951 39.52C613.479 36.6187 620.098 34.896 626.807 34.352L628.847 36.8C628.122 39.52 627.759 43.9627 627.759 50.128V81ZM641.903 81.272C639.546 81.272 637.189 81.7253 634.831 82.632C632.474 83.448 630.706 84.264 629.527 85.08L627.759 86.304V117.448C627.759 120.803 629.029 123.523 631.567 125.608C634.197 127.603 637.733 128.6 642.175 128.6C646.618 128.6 650.381 126.605 653.463 122.616C656.546 118.627 658.087 112.643 658.087 104.664C658.087 89.0693 652.693 81.272 641.903 81.272Z" fill="url(#paint0_linear_230_341)"/>
<path d="M107.55 51.4567H95.556C95.556 51.4567 95.4905 58.3383 95.425 59.6491H107.55C112.072 59.6491 115.742 63.3192 115.742 67.8414V88.3552C115.742 92.8774 112.072 96.5476 107.55 96.5476H84.611C79.8266 96.5476 76.2875 96.0888 73.666 95.1713C69.9302 93.926 68.0296 91.7632 67.1121 88.8795C65.277 88.945 63.5074 88.945 62.0655 88.945C60.9514 88.945 59.8372 88.945 58.723 88.945C60.0338 95.3023 63.704 101.135 73.7315 103.56C75.7632 104.019 78.0571 104.347 80.5476 104.543V123.55C80.5476 128.072 76.8774 131.742 72.3552 131.742H51.7104C47.1882 131.742 43.518 128.072 43.518 123.55V100.611C43.518 82.129 50.4651 82.129 62 82.129C73.2727 82.129 88.74 82.129 88.74 55.389V32.4503C88.74 23.4059 81.334 16 72.2896 16L51.7104 16.1966C42.666 16.1966 35.26 23.6025 35.26 32.6469V51.4567H16.4503C7.34038 51.4567 0 58.8626 0 67.907V88.4207C0 97.4651 7.34038 104.871 16.4503 104.871H28.444V100.742C28.444 99.3002 28.5095 97.9239 28.5751 96.6131H16.4503C11.9281 96.6131 8.25793 92.9429 8.25793 88.4207V67.907C8.25793 63.3848 11.9281 59.7146 16.4503 59.7146H39.389C44.1734 59.7146 47.7125 60.1734 50.334 61.0909C54.0698 62.3362 55.9704 64.4989 56.888 67.3827C58.723 67.3171 60.4926 67.3171 61.9345 67.3171C63.0486 67.3171 64.1628 67.3171 65.277 67.3171C63.9662 60.9598 60.296 55.1269 50.2685 52.7019C48.2368 52.2431 45.9429 51.9154 43.4524 51.7188V32.7125C43.4524 28.1903 47.1226 24.5201 51.6448 24.5201H72.2241C76.7463 24.5201 80.4165 28.1903 80.4165 32.7125V55.6512C80.4165 74.1332 73.4694 74.1332 61.9345 74.1332C50.6617 74.1332 35.1945 74.1332 35.1945 100.873V123.812C35.1945 132.856 42.6004 140.262 51.6448 140.262H72.2241C81.2685 140.262 88.6744 132.856 88.6744 123.812V105.002H107.484C116.529 105.002 123.934 97.5962 123.934 88.5518V67.907C124 58.8626 116.594 51.4567 107.55 51.4567Z" fill="url(#paint1_linear_230_341)"/>
<defs>
<linearGradient id="paint0_linear_230_341" x1="155.935" y1="80" x2="675.935" y2="80" gradientUnits="userSpaceOnUse">
<stop stop-color="#0D81E4"/>
<stop offset="1" stop-color="#11C4D4"/>
</linearGradient>
<linearGradient id="paint1_linear_230_341" x1="0" y1="78.1822" x2="123.975" y2="78.1822" gradientUnits="userSpaceOnUse">
<stop stop-color="#0D81E4"/>
<stop offset="1" stop-color="#11C4D4"/>
</linearGradient>
</defs>
</svg>
