<svg width="31" height="32" viewBox="0 0 31 32" fill="none" xmlns="http://www.w3.org/2000/svg">
<path d="M26.8874 8.86417H23.889C23.889 8.86417 23.8726 10.5846 23.8562 10.9123H26.8874C28.018 10.9123 28.9355 11.8298 28.9355 12.9604V18.0888C28.9355 19.2193 28.018 20.1369 26.8874 20.1369H21.1528C19.9567 20.1369 19.0719 20.0222 18.4165 19.7928C17.4826 19.4815 17.0074 18.9408 16.778 18.2199C16.3192 18.2363 15.8769 18.2363 15.5164 18.2363C15.2378 18.2363 14.9593 18.2363 14.6808 18.2363C15.0085 19.8256 15.926 21.2838 18.4329 21.8901C18.9408 22.0048 19.5143 22.0867 20.1369 22.1358V26.8874C20.1369 28.018 19.2193 28.9355 18.0888 28.9355H12.9276C11.797 28.9355 10.8795 28.018 10.8795 26.8874V21.1528C10.8795 16.5322 12.6163 16.5322 15.5 16.5322C18.3182 16.5322 22.185 16.5322 22.185 9.84725V4.11258C22.185 1.85148 20.3335 0 18.0724 0L12.9276 0.0491543C10.6665 0.0491543 8.81501 1.90063 8.81501 4.16173V8.86417H4.11258C1.8351 8.86417 0 10.7156 0 12.9767V18.1052C0 20.3663 1.8351 22.2178 4.11258 22.2178H7.11099V21.1855C7.11099 20.8251 7.12738 20.481 7.14376 20.1533H4.11258C2.98203 20.1533 2.06448 19.2357 2.06448 18.1052V12.9767C2.06448 11.8462 2.98203 10.9286 4.11258 10.9286H9.84725C11.0433 10.9286 11.9281 11.0433 12.5835 11.2727C13.5174 11.584 13.9926 12.1247 14.222 12.8457C14.6808 12.8293 15.1232 12.8293 15.4836 12.8293C15.7622 12.8293 16.0407 12.8293 16.3192 12.8293C15.9915 11.24 15.074 9.78171 12.5671 9.17548C12.0592 9.06078 11.4857 8.97886 10.8631 8.9297V4.17812C10.8631 3.04757 11.7807 2.13002 12.9112 2.13002H18.056C19.1866 2.13002 20.1041 3.04757 20.1041 4.17812V9.91279C20.1041 14.5333 18.3673 14.5333 15.4836 14.5333C12.6654 14.5333 8.79863 14.5333 8.79863 21.2183V26.953C8.79863 29.2141 10.6501 31.0655 12.9112 31.0655H18.056C20.3171 31.0655 22.1686 29.2141 22.1686 26.953V22.2505H26.871C29.1321 22.2505 30.9836 20.399 30.9836 18.138V12.9767C31 10.7156 29.1485 8.86417 26.8874 8.86417Z" fill="url(#paint0_linear_327_744)"/>
<defs>
<linearGradient id="paint0_linear_327_744" x1="0" y1="15.5456" x2="30.9937" y2="15.5456" gradientUnits="userSpaceOnUse">
<stop stop-color="#0D81E4"/>
<stop offset="1" stop-color="#11C4D4"/>
</linearGradient>
</defs>
</svg>
