<svg width="31" height="32" viewBox="0 0 31 32" fill="none" xmlns="http://www.w3.org/2000/svg">
<path d="M26.8874 9.33139H23.889C23.889 9.33139 23.8726 11.0518 23.8562 11.3795H26.8874C28.018 11.3795 28.9355 12.297 28.9355 13.4276V18.556C28.9355 19.6866 28.018 20.6041 26.8874 20.6041H21.1528C19.9567 20.6041 19.0719 20.4894 18.4165 20.26C17.4826 19.9487 17.0074 19.408 16.778 18.6871C16.3192 18.7035 15.8769 18.7035 15.5164 18.7035C15.2378 18.7035 14.9593 18.7035 14.6808 18.7035C15.0085 20.2928 15.926 21.7511 18.4329 22.3573C18.9408 22.472 19.5143 22.5539 20.1369 22.6031V27.3546C20.1369 28.4852 19.2193 29.4027 18.0888 29.4027H12.9276C11.797 29.4027 10.8795 28.4852 10.8795 27.3546V21.62C10.8795 16.9995 12.6163 16.9995 15.5 16.9995C18.3182 16.9995 22.185 16.9995 22.185 10.3145V4.5798C22.185 2.3187 20.3335 0.467224 18.0724 0.467224L12.9276 0.516378C10.6665 0.516378 8.81501 2.36786 8.81501 4.62896V9.33139H4.11258C1.8351 9.33139 0 11.1829 0 13.444V18.5724C0 20.8335 1.8351 22.685 4.11258 22.685H7.11099V21.6527C7.11099 21.2923 7.12738 20.9482 7.14376 20.6205H4.11258C2.98203 20.6205 2.06448 19.703 2.06448 18.5724V13.444C2.06448 12.3134 2.98203 11.3959 4.11258 11.3959H9.84725C11.0433 11.3959 11.9281 11.5106 12.5835 11.74C13.5174 12.0513 13.9926 12.592 14.222 13.3129C14.6808 13.2965 15.1232 13.2965 15.4836 13.2965C15.7622 13.2965 16.0407 13.2965 16.3192 13.2965C15.9915 11.7072 15.074 10.2489 12.5671 9.6427C12.0592 9.52801 11.4857 9.44608 10.8631 9.39693V4.64534C10.8631 3.51479 11.7807 2.59725 12.9112 2.59725H18.056C19.1866 2.59725 20.1041 3.51479 20.1041 4.64534V10.38C20.1041 15.0005 18.3673 15.0005 15.4836 15.0005C12.6654 15.0005 8.79863 15.0005 8.79863 21.6855V27.4202C8.79863 29.6813 10.6501 31.5328 12.9112 31.5328H18.056C20.3171 31.5328 22.1686 29.6813 22.1686 27.4202V22.7178H26.871C29.1321 22.7178 30.9836 20.8663 30.9836 18.6052V13.444C31 11.1829 29.1485 9.33139 26.8874 9.33139Z" fill="#FAFAFA"/>
</svg>
