<svg width="46" height="46" viewBox="0 0 46 46" fill="none" xmlns="http://www.w3.org/2000/svg">
<g filter="url(#filter0_d_417_1669)">
<path d="M1 12C1 5.37258 6.37258 0 13 0H33C39.6274 0 45 5.37258 45 12V32C45 38.6274 39.6274 44 33 44H13C6.37258 44 1 38.6274 1 32V12Z" fill="#11C4D4" shape-rendering="crispEdges"/>
<path fill-rule="evenodd" clip-rule="evenodd" d="M22.9998 13.6666C23.4601 13.6666 23.8332 14.0397 23.8332 14.5V15.7305C24.9008 15.9372 25.8858 16.4702 26.6464 17.2656C27.5937 18.2562 28.1187 19.5762 28.1107 20.9467V22.4441C28.1107 23.1769 28.3803 23.6197 28.7115 24.0429C28.7537 24.0968 28.8058 24.1606 28.8625 24.2302C28.9998 24.3985 29.1645 24.6003 29.2821 24.7756C29.473 25.0601 29.6665 25.4413 29.6665 25.9233C29.6665 25.9364 29.6665 25.9502 29.6666 25.9647C29.6671 26.1769 29.6679 26.5367 29.5753 26.8452C29.5205 27.028 29.4132 27.2679 29.1896 27.4616C28.9508 27.6683 28.6628 27.7508 28.3848 27.7508H26.5521C26.35 28.3741 25.986 28.9377 25.4913 29.3808C24.8064 29.9943 23.9193 30.3335 22.9998 30.3335C22.0804 30.3335 21.1933 29.9943 20.5084 29.3808C20.0137 28.9377 19.6497 28.3741 19.4476 27.7508H17.6149C17.3369 27.7508 17.0489 27.6683 16.8101 27.4616C16.5865 27.2679 16.4792 27.028 16.4244 26.8452C16.3318 26.5367 16.3326 26.1769 16.3331 25.9647C16.3332 25.9502 16.3332 25.9364 16.3332 25.9233C16.3332 25.4413 16.5267 25.0601 16.7176 24.7756C16.8352 24.6003 16.9999 24.3985 17.1372 24.2302C17.1939 24.1606 17.246 24.0968 17.2882 24.0429C17.6194 23.6197 17.889 23.1769 17.889 22.4441V20.9467C17.881 19.5762 18.4061 18.2562 19.3533 17.2656C20.1139 16.4702 21.0989 15.9372 22.1665 15.7305V14.5C22.1665 14.0397 22.5396 13.6666 22.9998 13.6666ZM22.9998 17.3049C22.0737 17.3487 21.1992 17.7468 20.5579 18.4175C19.9091 19.0959 19.5497 20.0001 19.5557 20.9388L19.5557 20.9441L19.5557 22.4441C19.5557 23.6996 19.0473 24.4994 18.6007 25.0701C18.5036 25.1941 18.4248 25.29 18.3572 25.3723C18.2543 25.4976 18.1774 25.5912 18.1017 25.7041C18.0008 25.8545 17.9999 25.9082 17.9999 25.9233C17.9999 25.9828 17.9999 26.0358 18.0005 26.0841H27.9992C27.9998 26.0358 27.9999 25.9828 27.9999 25.9233C27.9999 25.9082 27.9989 25.8545 27.898 25.7041C27.8223 25.5912 27.7454 25.4975 27.6425 25.3723C27.5749 25.29 27.4961 25.1941 27.399 25.0701C26.9524 24.4994 26.444 23.6996 26.444 22.4441V20.9388C26.45 20.0001 26.0906 19.0959 25.4418 18.4175C24.8005 17.7468 23.926 17.3487 22.9998 17.3049ZM21.2827 27.7508C21.3779 27.8928 21.4911 28.0235 21.6204 28.1393C21.9996 28.479 22.4908 28.6668 22.9998 28.6668C23.5089 28.6668 24.0001 28.479 24.3793 28.1393C24.5086 28.0235 24.6218 27.8928 24.717 27.7508H21.2827ZM18.6644 15.571C19.0021 15.8837 19.0223 16.411 18.7096 16.7487C17.6514 17.8914 17.0609 19.3899 17.0548 20.9473C17.0531 21.4076 16.6785 21.7792 16.2183 21.7775C15.7581 21.7757 15.3864 21.4011 15.3882 20.9409C15.3958 18.9658 16.1448 17.0655 17.4867 15.6163C17.7994 15.2786 18.3267 15.2583 18.6644 15.571ZM27.3353 15.571C27.673 15.2583 28.2003 15.2786 28.513 15.6163C29.8549 17.0655 30.6039 18.9658 30.6115 20.9409C30.6133 21.4011 30.2416 21.7757 29.7814 21.7775C29.3212 21.7792 28.9466 21.4076 28.9449 20.9473C28.9388 19.3899 28.3483 17.8914 27.2901 16.7487C26.9774 16.411 26.9976 15.8837 27.3353 15.571Z" fill="white"/>
</g>
<defs>
<filter id="filter0_d_417_1669" x="0.45" y="0" width="45.1" height="45.55" filterUnits="userSpaceOnUse" color-interpolation-filters="sRGB">
<feFlood flood-opacity="0" result="BackgroundImageFix"/>
<feColorMatrix in="SourceAlpha" type="matrix" values="0 0 0 0 0 0 0 0 0 0 0 0 0 0 0 0 0 0 127 0" result="hardAlpha"/>
<feMorphology radius="0.05" operator="dilate" in="SourceAlpha" result="effect1_dropShadow_417_1669"/>
<feOffset dy="1"/>
<feGaussianBlur stdDeviation="0.25"/>
<feComposite in2="hardAlpha" operator="out"/>
<feColorMatrix type="matrix" values="0 0 0 0 0.113725 0 0 0 0 0.160784 0 0 0 0 0.239216 0 0 0 0.02 0"/>
<feBlend mode="normal" in2="BackgroundImageFix" result="effect1_dropShadow_417_1669"/>
<feBlend mode="normal" in="SourceGraphic" in2="effect1_dropShadow_417_1669" result="shape"/>
</filter>
</defs>
</svg>
