<svg width="63" height="63" viewBox="0 0 63 63" fill="none" xmlns="http://www.w3.org/2000/svg">
<path fill-rule="evenodd" clip-rule="evenodd" d="M41.1155 9.90441C36.4622 7.83098 31.2631 7.31729 26.294 8.43995C21.3247 9.56259 16.8515 12.2615 13.5415 16.134C10.2314 20.0066 8.2618 24.8454 7.92638 29.9287C7.59098 35.012 8.90774 40.0677 11.6803 44.3418C14.4528 48.6155 18.5326 51.8787 23.3113 53.6445C28.09 55.4103 33.3114 55.5841 38.1968 54.1401C43.0821 52.6961 47.3701 49.7115 50.4209 45.6317C53.4716 41.5516 55.1217 36.5946 55.1251 31.5003V29.0853C55.1251 28.3891 55.4018 27.7213 55.894 27.2291C56.3862 26.7369 57.054 26.4603 57.7501 26.4603C58.4463 26.4603 59.1141 26.7369 59.6063 27.2291C60.0984 27.7213 60.3751 28.3891 60.3751 29.0853V31.5003C60.3717 36.1523 59.2443 40.7347 57.0891 44.8576C54.934 48.9804 51.815 52.5215 47.9972 55.1799C44.1791 57.8382 39.7757 59.5347 35.1612 60.1254C30.5467 60.7157 25.8579 60.1829 21.4936 58.5719C17.8619 57.2305 14.537 55.1728 11.7167 52.5205C8.89634 49.8684 6.63814 46.6762 5.07634 43.1337C3.51457 39.5913 2.68111 35.7709 2.62553 31.8998C2.56995 28.0287 3.29339 24.186 4.75283 20.6001C6.21228 17.0143 8.37793 13.7585 11.121 11.0265C13.864 8.29448 17.1285 6.14195 20.7202 4.69694C24.3119 3.25196 28.1574 2.54398 32.0283 2.61514C35.8991 2.68629 39.7161 3.53514 43.2522 5.11116C43.5672 5.25147 43.8513 5.45241 44.0886 5.70255C44.3259 5.95269 44.5115 6.24708 44.6348 6.56896C44.7585 6.89084 44.8173 7.23387 44.8081 7.57851C44.7989 7.92312 44.7222 8.26258 44.5818 8.57748C44.4416 8.89237 44.2406 9.17655 43.9904 9.4138C43.7402 9.65105 43.446 9.83669 43.1241 9.96017C42.8021 10.0836 42.4592 10.1425 42.1146 10.1334C41.7699 10.1243 41.4305 10.0447 41.1155 9.90441Z" fill="#3FB88C"/>
<path fill-rule="evenodd" clip-rule="evenodd" d="M59.6058 8.64483C60.0977 9.1371 60.3741 9.80466 60.3741 10.5007C60.3741 11.1968 60.0977 11.8643 59.6058 12.3566L33.3558 38.6329C32.8633 39.1248 32.1958 39.4015 31.4999 39.4015C30.8037 39.4015 30.1362 39.1248 29.644 38.6329L21.7689 30.7579C21.5182 30.5156 21.3182 30.2261 21.1806 29.9058C21.0431 29.5856 20.9706 29.2412 20.9676 28.8926C20.9646 28.544 21.031 28.1983 21.163 27.8757C21.295 27.553 21.4899 27.2601 21.7364 27.0136C21.9828 26.7671 22.2759 26.5721 22.5985 26.4403C22.9211 26.3083 23.2668 26.2418 23.6153 26.2448C23.9639 26.2478 24.3083 26.3203 24.6286 26.4579C24.9489 26.5954 25.2385 26.7955 25.4807 27.0462L31.4999 33.0627L55.894 8.64483C56.3862 8.15272 57.0537 7.87628 57.7499 7.87628C58.4458 7.87628 59.1133 8.15272 59.6058 8.64483Z" fill="#3FB88C"/>
</svg>
